<mxfile host="Electron" modified="2024-05-02T12:35:11.397Z" agent="Mozilla/5.0 (Windows NT 10.0; Win64; x64) AppleWebKit/537.36 (KHTML, like Gecko) draw.io/24.2.5 Chrome/120.0.6099.109 Electron/28.1.0 Safari/537.36" etag="53-pv-8IIYV-lqgYpCI2" version="24.2.5" type="device">
  <diagram id="C5RBs43oDa-KdzZeNtuy" name="Page-1">
    <mxGraphModel dx="384" dy="224" grid="1" gridSize="10" guides="1" tooltips="1" connect="1" arrows="1" fold="1" page="1" pageScale="1" pageWidth="827" pageHeight="1169" math="0" shadow="0">
      <root>
        <mxCell id="WIyWlLk6GJQsqaUBKTNV-0" />
        <mxCell id="WIyWlLk6GJQsqaUBKTNV-1" parent="WIyWlLk6GJQsqaUBKTNV-0" />
        <mxCell id="ztBR9Og4JabDUDKrwZr7-6" value="" style="edgeStyle=orthogonalEdgeStyle;rounded=0;orthogonalLoop=1;jettySize=auto;html=1;" edge="1" parent="WIyWlLk6GJQsqaUBKTNV-1" source="ztBR9Og4JabDUDKrwZr7-0" target="ztBR9Og4JabDUDKrwZr7-1">
          <mxGeometry relative="1" as="geometry" />
        </mxCell>
        <mxCell id="ztBR9Og4JabDUDKrwZr7-0" value="START&lt;div&gt;&lt;br&gt;&lt;/div&gt;" style="ellipse;whiteSpace=wrap;html=1;fillColor=#f8cecc;strokeColor=#b85450;" vertex="1" parent="WIyWlLk6GJQsqaUBKTNV-1">
          <mxGeometry x="95" y="80" width="90" height="40" as="geometry" />
        </mxCell>
        <mxCell id="ztBR9Og4JabDUDKrwZr7-8" value="" style="edgeStyle=orthogonalEdgeStyle;rounded=0;orthogonalLoop=1;jettySize=auto;html=1;" edge="1" parent="WIyWlLk6GJQsqaUBKTNV-1" source="ztBR9Og4JabDUDKrwZr7-1" target="ztBR9Og4JabDUDKrwZr7-5">
          <mxGeometry relative="1" as="geometry" />
        </mxCell>
        <mxCell id="ztBR9Og4JabDUDKrwZr7-1" value="BE: A" style="shape=parallelogram;perimeter=parallelogramPerimeter;whiteSpace=wrap;html=1;fixedSize=1;" vertex="1" parent="WIyWlLk6GJQsqaUBKTNV-1">
          <mxGeometry x="80" y="160" width="120" height="40" as="geometry" />
        </mxCell>
        <mxCell id="ztBR9Og4JabDUDKrwZr7-10" value="" style="edgeStyle=orthogonalEdgeStyle;rounded=0;orthogonalLoop=1;jettySize=auto;html=1;" edge="1" parent="WIyWlLk6GJQsqaUBKTNV-1">
          <mxGeometry relative="1" as="geometry">
            <mxPoint x="139.81" y="250.00000000000006" as="sourcePoint" />
            <mxPoint x="139.81" y="320" as="targetPoint" />
          </mxGeometry>
        </mxCell>
        <mxCell id="ztBR9Og4JabDUDKrwZr7-5" value="BE: B" style="shape=parallelogram;perimeter=parallelogramPerimeter;whiteSpace=wrap;html=1;fixedSize=1;" vertex="1" parent="WIyWlLk6GJQsqaUBKTNV-1">
          <mxGeometry x="82.5" y="240" width="115" height="40" as="geometry" />
        </mxCell>
        <mxCell id="ztBR9Og4JabDUDKrwZr7-13" value="" style="edgeStyle=orthogonalEdgeStyle;rounded=0;orthogonalLoop=1;jettySize=auto;html=1;" edge="1" parent="WIyWlLk6GJQsqaUBKTNV-1" source="ztBR9Og4JabDUDKrwZr7-9" target="ztBR9Og4JabDUDKrwZr7-11">
          <mxGeometry relative="1" as="geometry" />
        </mxCell>
        <mxCell id="ztBR9Og4JabDUDKrwZr7-9" value="Ter端let: = A*B" style="whiteSpace=wrap;html=1;" vertex="1" parent="WIyWlLk6GJQsqaUBKTNV-1">
          <mxGeometry x="80" y="320" width="120" height="40" as="geometry" />
        </mxCell>
        <mxCell id="ztBR9Og4JabDUDKrwZr7-16" value="" style="edgeStyle=orthogonalEdgeStyle;rounded=0;orthogonalLoop=1;jettySize=auto;html=1;" edge="1" parent="WIyWlLk6GJQsqaUBKTNV-1" source="ztBR9Og4JabDUDKrwZr7-11" target="ztBR9Og4JabDUDKrwZr7-14">
          <mxGeometry relative="1" as="geometry" />
        </mxCell>
        <mxCell id="ztBR9Og4JabDUDKrwZr7-11" value="Ker端let: =2*A+2*B" style="whiteSpace=wrap;html=1;" vertex="1" parent="WIyWlLk6GJQsqaUBKTNV-1">
          <mxGeometry x="80" y="400" width="120" height="40" as="geometry" />
        </mxCell>
        <mxCell id="ztBR9Og4JabDUDKrwZr7-19" value="" style="edgeStyle=orthogonalEdgeStyle;rounded=0;orthogonalLoop=1;jettySize=auto;html=1;" edge="1" parent="WIyWlLk6GJQsqaUBKTNV-1" source="ztBR9Og4JabDUDKrwZr7-14" target="ztBR9Og4JabDUDKrwZr7-17">
          <mxGeometry relative="1" as="geometry" />
        </mxCell>
        <mxCell id="ztBR9Og4JabDUDKrwZr7-14" value="KI: ter端let" style="shape=parallelogram;perimeter=parallelogramPerimeter;whiteSpace=wrap;html=1;fixedSize=1;" vertex="1" parent="WIyWlLk6GJQsqaUBKTNV-1">
          <mxGeometry x="80" y="480" width="120" height="40" as="geometry" />
        </mxCell>
        <mxCell id="ztBR9Og4JabDUDKrwZr7-21" value="" style="edgeStyle=orthogonalEdgeStyle;rounded=0;orthogonalLoop=1;jettySize=auto;html=1;" edge="1" parent="WIyWlLk6GJQsqaUBKTNV-1" source="ztBR9Og4JabDUDKrwZr7-17" target="ztBR9Og4JabDUDKrwZr7-20">
          <mxGeometry relative="1" as="geometry" />
        </mxCell>
        <mxCell id="ztBR9Og4JabDUDKrwZr7-17" value="KI: ker端let" style="shape=parallelogram;perimeter=parallelogramPerimeter;whiteSpace=wrap;html=1;fixedSize=1;" vertex="1" parent="WIyWlLk6GJQsqaUBKTNV-1">
          <mxGeometry x="80" y="560" width="120" height="40" as="geometry" />
        </mxCell>
        <mxCell id="ztBR9Og4JabDUDKrwZr7-20" value="STOP" style="ellipse;whiteSpace=wrap;html=1;fillColor=#f8cecc;strokeColor=#b85450;" vertex="1" parent="WIyWlLk6GJQsqaUBKTNV-1">
          <mxGeometry x="97.5" y="640" width="85" height="40" as="geometry" />
        </mxCell>
      </root>
    </mxGraphModel>
  </diagram>
</mxfile>
